<svg xmlns="http://www.w3.org/2000/svg" viewBox="0 0 160 160" role="img" aria-label="Logo Pharma">
  <defs>
    <linearGradient id="bg" x1="0" y1="0" x2="1" y2="1">
      <stop offset="0%" stop-color="#0ea5a4" />
      <stop offset="100%" stop-color="#0f766e" />
    </linearGradient>
    <linearGradient id="leaf" x1="0" y1="0" x2="1" y2="1">
      <stop offset="0%" stop-color="#34d399" />
      <stop offset="100%" stop-color="#10b981" />
    </linearGradient>
  </defs>

  <rect x="8" y="8" width="144" height="144" rx="36" fill="url(#bg)" />

  <rect x="34" y="64" width="92" height="22" rx="11" fill="#ffffff" transform="rotate(-35 80 75)" />
  <rect x="60" y="54" width="22" height="42" rx="11" fill="#ecfeff" transform="rotate(-35 71 75)" />

  <path d="M108 42c17 0 30 12 32 29-18 4-33-5-38-21-2-4 1-8 6-8z" fill="url(#leaf)" />
  <path d="M120 49c-8 5-14 12-18 20" stroke="#065f46" stroke-width="3" stroke-linecap="round" />

  <circle cx="123" cy="119" r="20" fill="#0b1324" opacity="0.2" />
  <path d="M113 120l6 6 12-13" stroke="#ffffff" stroke-width="5.5" stroke-linecap="round" stroke-linejoin="round" fill="none" />
</svg>
